# xmcd
#
# Track frame offsets:
#	150
#	15154
#	25710
#	42257
#	55925
#	79690
#	91226
#	101519
#	111305
#	129883
#	153021
#	169935
#
# Disc length: 2434 seconds
#
# Revision: 0
# Processed by: cddbd v1.5.1PL2 Copyright (c) Steve Scherf et al.
# Submitted via: dBpowerAMP V4.0
#
DISCID=7e09800c
DTITLE=the Afternoons - Rocket Summer
DYEAR=2005
DGENRE=BritPop
TTITLE0=Rocket Summer
TTITLE1=Baby, You Know the Deal
TTITLE2=Let's Fall Apart
TTITLE3=Fading Fast
TTITLE4=Coast Road
TTITLE5=You'll Never Know
TTITLE6=Never Tell Anybody Anything
TTITLE7=Looking For A Reason
TTITLE8=Tides
TTITLE9=You Are
TTITLE10=In Flames
TTITLE11=Canada Geese
EXTD=
EXTT0=
EXTT1=
EXTT2=
EXTT3=
EXTT4=
EXTT5=
EXTT6=
EXTT7=
EXTT8=
EXTT9=
EXTT10=
EXTT11=
PLAYORDER=
